<?xml version="1.0" encoding="utf-8"?>
<!-- Generator: Adobe Illustrator 24.2.0, SVG Export Plug-In . SVG Version: 6.00 Build 0)  -->
<svg version="1.1" id="_x3C_Layer_x3E_" xmlns="http://www.w3.org/2000/svg" xmlns:xlink="http://www.w3.org/1999/xlink" x="0px"
	 y="0px" viewBox="0 0 510.25 510.25" style="enable-background:new 0 0 510.25 510.25;" xml:space="preserve">
<style type="text/css">
	.st0{fill:#370C45;}
	.st1{fill:#543175;}
	.st2{fill:#B947C0;}
	.st3{fill:#5E4194;}
	.st4{fill:#755AC1;}
	.st5{fill:#A8A3D2;}
	.st6{fill:#837CC2;}
	.st7{fill:#DB8EE3;}
	.st8{fill:#BFBAF0;}
</style>
<g>
	<g>
		<rect x="476.98" y="272.57" class="st0" width="33.28" height="33.28"/>
		<rect x="476.98" y="237.68" class="st0" width="33.28" height="34.89"/>
		<rect x="476.98" y="204.41" class="st0" width="33.28" height="33.27"/>
		<rect x="442.09" y="305.85" class="st0" width="34.89" height="33.19"/>
		<rect x="442.09" y="272.57" class="st1" width="34.89" height="33.28"/>
		<rect x="442.09" y="237.68" class="st1" width="34.89" height="34.89"/>
		<rect x="442.09" y="204.41" class="st1" width="34.89" height="33.27"/>
		<rect x="442.09" y="169.52" class="st0" width="34.89" height="34.89"/>
		<rect x="408.9" y="339.04" class="st0" width="33.19" height="34.89"/>
		<rect x="408.9" y="305.85" class="st1" width="33.19" height="33.19"/>
		<rect x="408.9" y="272.57" class="st2" width="33.19" height="33.28"/>
		<rect x="408.9" y="237.68" class="st2" width="33.19" height="34.89"/>
		<rect x="408.9" y="204.41" class="st2" width="33.19" height="33.27"/>
		<rect x="408.9" y="169.52" class="st1" width="33.19" height="34.89"/>
		<rect x="408.9" y="136.24" class="st0" width="33.19" height="33.28"/>
		<rect x="374.01" y="373.93" class="st0" width="34.89" height="33.28"/>
		<rect x="374.01" y="339.04" class="st1" width="34.89" height="34.89"/>
		<rect x="374.01" y="305.85" class="st2" width="34.89" height="33.19"/>
		<rect x="374.01" y="272.57" class="st3" width="34.89" height="33.28"/>
		<rect x="374.01" y="237.68" class="st4" width="34.89" height="34.89"/>
		<rect x="374.01" y="204.41" class="st3" width="34.89" height="33.27"/>
		<rect x="374.01" y="169.52" class="st2" width="34.89" height="34.89"/>
		<rect x="374.01" y="136.24" class="st1" width="34.89" height="33.28"/>
		<rect x="374.01" y="101.36" class="st0" width="34.89" height="34.89"/>
		<rect x="340.73" y="407.2" class="st0" width="33.28" height="34.89"/>
		<rect x="340.73" y="373.93" class="st1" width="33.28" height="33.28"/>
		<rect x="340.73" y="339.04" class="st2" width="33.28" height="34.89"/>
		<rect x="340.73" y="305.85" class="st3" width="33.28" height="33.19"/>
		<rect x="340.73" y="272.57" class="st4" width="33.28" height="33.28"/>
		<rect x="340.73" y="237.68" class="st5" width="33.28" height="34.89"/>
		<rect x="340.73" y="204.41" class="st4" width="33.28" height="33.27"/>
		<rect x="340.73" y="169.52" class="st3" width="33.28" height="34.89"/>
		<rect x="340.73" y="136.24" class="st2" width="33.28" height="33.28"/>
		<rect x="340.73" y="101.36" class="st1" width="33.28" height="34.89"/>
		<rect x="340.73" y="68.16" class="st0" width="33.28" height="33.19"/>
		<rect x="305.84" y="442.09" class="st0" width="34.89" height="33.28"/>
		<rect x="305.84" y="407.2" class="st1" width="34.89" height="34.89"/>
		<rect x="305.84" y="373.93" class="st2" width="34.89" height="33.28"/>
		<rect x="305.84" y="339.04" class="st3" width="34.89" height="34.89"/>
		<rect x="305.84" y="305.85" class="st4" width="34.89" height="33.19"/>
		<rect x="305.84" y="272.57" class="st4" width="34.89" height="33.28"/>
		<rect x="305.84" y="237.68" class="st5" width="34.89" height="34.89"/>
		<rect x="305.84" y="204.41" class="st4" width="34.89" height="33.27"/>
		<rect x="305.84" y="169.52" class="st6" width="34.89" height="34.89"/>
		<rect x="305.84" y="136.24" class="st4" width="34.89" height="33.28"/>
		<rect x="305.84" y="101.36" class="st2" width="34.89" height="34.89"/>
		<rect x="305.84" y="68.16" class="st1" width="34.89" height="33.19"/>
		<rect x="305.84" y="33.18" class="st0" width="34.89" height="34.99"/>
		<rect x="272.57" y="475.36" class="st0" width="33.27" height="34.89"/>
		<rect x="272.57" y="442.09" class="st1" width="33.27" height="33.28"/>
		<rect x="272.57" y="407.2" class="st2" width="33.27" height="34.89"/>
		<rect x="272.57" y="373.93" class="st3" width="33.27" height="33.28"/>
		<rect x="272.57" y="339.04" class="st4" width="33.27" height="34.89"/>
		<rect x="272.57" y="305.85" class="st4" width="33.27" height="33.19"/>
		<rect x="272.57" y="272.57" class="st5" width="33.27" height="33.28"/>
		<rect x="272.57" y="237.68" class="st5" width="33.27" height="34.89"/>
		<rect x="272.57" y="204.41" class="st5" width="33.27" height="33.27"/>
		<rect x="272.57" y="169.52" class="st6" width="33.27" height="34.89"/>
		<rect x="272.57" y="136.24" class="st6" width="33.27" height="33.28"/>
		<rect x="272.57" y="101.36" class="st4" width="33.27" height="34.89"/>
		<rect x="272.57" y="68.16" class="st7" width="33.27" height="33.19"/>
		<rect x="272.57" y="33.18" class="st1" width="33.27" height="34.99"/>
		<rect x="272.57" class="st0" width="33.27" height="33.18"/>
		<rect x="237.68" y="475.36" class="st0" width="34.89" height="34.89"/>
		<rect x="237.68" y="442.09" class="st1" width="34.89" height="33.28"/>
		<rect x="237.68" y="407.2" class="st2" width="34.89" height="34.89"/>
		<rect x="237.68" y="373.93" class="st8" width="34.89" height="33.28"/>
		<rect x="237.68" y="339.04" class="st8" width="34.89" height="34.89"/>
		<rect x="237.68" y="305.85" class="st8" width="34.89" height="33.19"/>
		<rect x="237.68" y="272.57" class="st5" width="34.89" height="33.28"/>
		<rect x="237.68" y="237.68" class="st5" width="34.89" height="34.89"/>
		<rect x="237.68" y="204.41" class="st8" width="34.89" height="33.27"/>
		<rect x="237.68" y="169.52" class="st8" width="34.89" height="34.89"/>
		<rect x="237.68" y="136.24" class="st8" width="34.89" height="33.28"/>
		<rect x="237.68" y="101.36" class="st8" width="34.89" height="34.89"/>
		<rect x="237.68" y="68.16" class="st7" width="34.89" height="33.19"/>
		<rect x="237.68" y="33.18" class="st1" width="34.89" height="34.99"/>
		<rect x="237.68" class="st0" width="34.89" height="33.18"/>
		<rect x="204.41" y="475.36" class="st0" width="33.28" height="34.89"/>
		<rect x="204.41" y="442.09" class="st1" width="33.28" height="33.28"/>
		<rect x="204.41" y="407.2" class="st7" width="33.28" height="34.89"/>
		<rect x="204.41" y="373.93" class="st3" width="33.28" height="33.28"/>
		<rect x="204.41" y="339.04" class="st4" width="33.28" height="34.89"/>
		<rect x="204.41" y="305.85" class="st4" width="33.28" height="33.19"/>
		<rect x="204.41" y="272.57" class="st5" width="33.28" height="33.28"/>
		<rect x="204.41" y="237.68" class="st8" width="33.28" height="34.89"/>
		<rect x="204.41" y="204.41" class="st8" width="33.28" height="33.27"/>
		<rect x="204.41" y="169.52" class="st8" width="33.28" height="34.89"/>
		<rect x="204.41" y="136.24" class="st8" width="33.28" height="33.28"/>
		<rect x="204.41" y="101.36" class="st4" width="33.28" height="34.89"/>
		<rect x="204.41" y="68.16" class="st7" width="33.28" height="33.19"/>
		<rect x="204.41" y="33.18" class="st1" width="33.28" height="34.99"/>
		<rect x="204.41" class="st0" width="33.28" height="33.18"/>
		<rect x="169.52" y="442.09" class="st0" width="34.89" height="33.28"/>
		<rect x="169.52" y="407.2" class="st1" width="34.89" height="34.89"/>
		<rect x="169.52" y="373.93" class="st7" width="34.89" height="33.28"/>
		<rect x="169.52" y="339.04" class="st3" width="34.89" height="34.89"/>
		<rect x="169.52" y="305.85" class="st4" width="34.89" height="33.19"/>
		<rect x="169.52" y="272.57" class="st6" width="34.89" height="33.28"/>
		<rect x="169.52" y="237.68" class="st8" width="34.89" height="34.89"/>
		<rect x="169.52" y="204.41" class="st8" width="34.89" height="33.27"/>
		<rect x="169.52" y="169.52" class="st8" width="34.89" height="34.89"/>
		<rect x="169.52" y="136.24" class="st4" width="34.89" height="33.28"/>
		<rect x="169.52" y="101.36" class="st7" width="34.89" height="34.89"/>
		<rect x="169.52" y="68.16" class="st1" width="34.89" height="33.19"/>
		<rect x="169.52" y="33.18" class="st0" width="34.89" height="34.99"/>
		<rect x="136.33" y="407.2" class="st0" width="33.19" height="34.89"/>
		<rect x="136.33" y="373.93" class="st1" width="33.19" height="33.28"/>
		<rect x="136.33" y="339.04" class="st7" width="33.19" height="34.89"/>
		<rect x="136.33" y="305.85" class="st3" width="33.19" height="33.19"/>
		<rect x="136.33" y="272.57" class="st6" width="33.19" height="33.28"/>
		<rect x="136.33" y="237.68" class="st8" width="33.19" height="34.89"/>
		<rect x="136.33" y="204.41" class="st8" width="33.19" height="33.27"/>
		<rect x="136.33" y="169.52" class="st4" width="33.19" height="34.89"/>
		<rect x="136.33" y="136.24" class="st7" width="33.19" height="33.28"/>
		<rect x="136.33" y="101.36" class="st1" width="33.19" height="34.89"/>
		<rect x="136.33" y="68.16" class="st0" width="33.19" height="33.19"/>
		<rect x="101.35" y="373.93" class="st0" width="34.97" height="33.28"/>
		<rect x="101.35" y="339.04" class="st1" width="34.97" height="34.89"/>
		<rect x="101.35" y="305.85" class="st7" width="34.97" height="33.19"/>
		<rect x="101.35" y="272.57" class="st4" width="34.97" height="33.28"/>
		<rect x="101.35" y="237.68" class="st8" width="34.97" height="34.89"/>
		<rect x="101.35" y="204.41" class="st4" width="34.97" height="33.27"/>
		<rect x="101.35" y="169.52" class="st7" width="34.97" height="34.89"/>
		<rect x="101.35" y="136.24" class="st1" width="34.97" height="33.28"/>
		<rect x="101.35" y="101.36" class="st0" width="34.97" height="34.89"/>
		<rect x="68.16" y="339.04" class="st0" width="33.19" height="34.89"/>
		<rect x="68.16" y="305.85" class="st1" width="33.19" height="33.19"/>
		<rect x="68.16" y="272.57" class="st7" width="33.19" height="33.28"/>
		<rect x="68.16" y="237.68" class="st7" width="33.19" height="34.89"/>
		<rect x="68.16" y="204.41" class="st7" width="33.19" height="33.27"/>
		<rect x="68.16" y="169.52" class="st1" width="33.19" height="34.89"/>
		<rect x="68.16" y="136.24" class="st0" width="33.19" height="33.28"/>
		<rect x="33.27" y="305.85" class="st0" width="34.89" height="33.19"/>
		<rect x="33.27" y="272.57" class="st1" width="34.89" height="33.28"/>
		<rect x="33.27" y="237.68" class="st1" width="34.89" height="34.89"/>
		<rect x="33.27" y="204.41" class="st1" width="34.89" height="33.27"/>
		<rect x="33.27" y="169.52" class="st0" width="34.89" height="34.89"/>
		<rect y="272.57" class="st0" width="33.27" height="33.28"/>
		<rect y="237.68" class="st0" width="33.27" height="34.89"/>
		<rect y="204.41" class="st0" width="33.27" height="33.27"/>
	</g>
</g>
</svg>
