<?xml version="1.0" encoding="utf-8"?>
<!-- Generator: Adobe Illustrator 24.2.0, SVG Export Plug-In . SVG Version: 6.00 Build 0)  -->
<svg version="1.1" id="Layer_1" xmlns="http://www.w3.org/2000/svg" xmlns:xlink="http://www.w3.org/1999/xlink" x="0px" y="0px"
	 viewBox="0 0 112.43 112.43" style="enable-background:new 0 0 112.43 112.43;" xml:space="preserve">
<style type="text/css">
	.st0{fill:#957EB9;}
</style>
<path class="st0" d="M70.98,99.2h-6.61v-6.58h-6.61v-6.65h-6.61V79.4h-6.61V33.04h6.61v-6.58h6.61v-6.65h6.61v-6.58h6.61V6.58h6.58
	v104.56h6.61V0H64.36v6.58h-6.61v6.65h-6.61v6.58h-6.61v6.65h-6.61v6.58H18.04V79.4h19.87v6.58h6.61v6.65h6.61v6.58h6.61v6.65h6.61
	v6.58h19.81v-6.58H70.98V99.2z M37.91,72.75H24.65V39.68h13.26V72.75z M70.98,33.04V19.81h-6.61v13.23H70.98z"/>
<g>
	<rect y="105.89" class="st0" width="6.61" height="6.61"/>
	<rect x="13.23" y="92.66" class="st0" width="6.61" height="6.61"/>
	<rect x="6.61" y="99.27" class="st0" width="6.61" height="6.61"/>
	<rect x="26.45" y="79.43" class="st0" width="6.61" height="6.61"/>
	<rect x="19.84" y="86.05" class="st0" width="6.61" height="6.61"/>
	<rect x="39.68" y="66.21" class="st0" width="6.61" height="6.61"/>
	<rect x="33.07" y="72.82" class="st0" width="6.61" height="6.61"/>
	<rect x="52.91" y="52.88" class="st0" width="6.61" height="6.61"/>
	<rect x="46.3" y="59.49" class="st0" width="6.61" height="6.61"/>
	<rect x="66.14" y="39.65" class="st0" width="6.61" height="6.61"/>
	<rect x="59.52" y="46.26" class="st0" width="6.61" height="6.61"/>
	<rect x="79.36" y="26.42" class="st0" width="6.61" height="6.61"/>
	<rect x="72.75" y="33.04" class="st0" width="6.61" height="6.61"/>
	<rect x="92.59" y="13.19" class="st0" width="6.61" height="6.61"/>
	<rect x="85.98" y="19.81" class="st0" width="6.61" height="6.61"/>
	<rect x="105.82" y="-0.03" class="st0" width="6.61" height="6.61"/>
	<rect x="99.2" y="6.58" class="st0" width="6.61" height="6.61"/>
</g>
</svg>
