<?xml version="1.0" encoding="utf-8"?>
<!-- Generator: Adobe Illustrator 24.3.0, SVG Export Plug-In . SVG Version: 6.00 Build 0)  -->
<svg version="1.1" id="Layer_1" xmlns="http://www.w3.org/2000/svg" xmlns:xlink="http://www.w3.org/1999/xlink" x="0px" y="0px"
	 viewBox="0 0 112.4 112.4" style="enable-background:new 0 0 112.4 112.4;" xml:space="preserve">
<style type="text/css">
	.st0{fill:#FFFFFF;}
</style>
<path class="st0" d="M71,99.2h-6.6v-6.6h-6.6V86h-6.6v-6.6h-6.6V33h6.6v-6.6h6.6v-6.6h6.6v-6.6H71V6.6h6.6v104.6h6.6V0H64.4v6.6
	h-6.6v6.6h-6.6v6.6h-6.6v6.6h-6.6V33H18v46.4h19.9V86h6.6v6.7h6.6v6.6h6.6v6.7h6.6v6.6h19.8v-6.6H71V99.2z M37.9,72.8H24.6V39.7
	h13.3V72.8z M71,33V19.8h-6.6V33H71z"/>
<g>
	<rect y="105.9" class="st0" width="6.6" height="6.6"/>
	<rect x="13.2" y="92.7" class="st0" width="6.6" height="6.6"/>
	<rect x="6.6" y="99.3" class="st0" width="6.6" height="6.6"/>
	<rect x="26.5" y="79.4" class="st0" width="6.6" height="6.6"/>
	<rect x="19.8" y="86.1" class="st0" width="6.6" height="6.6"/>
	<rect x="39.7" y="66.2" class="st0" width="6.6" height="6.6"/>
	<rect x="33.1" y="72.8" class="st0" width="6.6" height="6.6"/>
	<rect x="52.9" y="52.9" class="st0" width="6.6" height="6.6"/>
	<rect x="46.3" y="59.5" class="st0" width="6.6" height="6.6"/>
	<rect x="66.1" y="39.7" class="st0" width="6.6" height="6.6"/>
	<rect x="59.5" y="46.3" class="st0" width="6.6" height="6.6"/>
	<rect x="79.4" y="26.4" class="st0" width="6.6" height="6.6"/>
	<rect x="72.8" y="33" class="st0" width="6.6" height="6.6"/>
	<rect x="92.6" y="13.2" class="st0" width="6.6" height="6.6"/>
	<rect x="86" y="19.8" class="st0" width="6.6" height="6.6"/>
	<rect x="105.8" y="0" class="st0" width="6.6" height="6.6"/>
	<rect x="99.2" y="6.6" class="st0" width="6.6" height="6.6"/>
</g>
</svg>
