<?xml version="1.0" encoding="utf-8"?>
<!-- Generator: Adobe Illustrator 24.3.0, SVG Export Plug-In . SVG Version: 6.00 Build 0)  -->
<svg version="1.1" id="Layer_1" xmlns="http://www.w3.org/2000/svg" xmlns:xlink="http://www.w3.org/1999/xlink" x="0px" y="0px"
	 viewBox="0 0 105.8 112.4" style="enable-background:new 0 0 105.8 112.4;" xml:space="preserve">
<style type="text/css">
	.st0{fill:#FFFFFF;}
</style>
<path class="st0" d="M99.2,59.5v13.2h6.6V59.5H99.2z M92.6,52.9v6.6h6.6v-6.6H92.6z M86,46.3v-6.6h-6.6v39.7H86V52.9h6.6v-6.6H86z
	 M72.8,92.6h6.6V79.4h-6.6V92.6z M72.8,72.8H59.5v6.7h13.2V72.8z M59.5,99.2h13.2v-6.6H59.5V99.2z M52.9,99.2h-6.6v-6.6h-6.6V86
	h-6.6v-6.6h-6.6V33h6.6v-6.6h6.6v-6.6h6.6v-6.6h6.6V6.6h6.6v59.6h6.6V0H46.3v6.6h-6.6v6.6h-6.6v6.6h-6.6v6.6h-6.6V33H0v46.4h19.9V86
	h6.6v6.7h6.6v6.6h6.6v6.7h6.6v6.6h19.8v-6.6H52.9V99.2z M19.9,72.8H6.6V39.7h13.3V72.8z M52.9,79.4v13.2h6.6V79.4H52.9z M52.9,33
	V19.8h-6.6V33H52.9z"/>
</svg>
