<?xml version="1.0" encoding="utf-8"?>
<!-- Generator: Adobe Illustrator 24.2.0, SVG Export Plug-In . SVG Version: 6.00 Build 0)  -->
<svg version="1.1" id="_x3C_Layer_x3E_" xmlns="http://www.w3.org/2000/svg" xmlns:xlink="http://www.w3.org/1999/xlink" x="0px"
	 y="0px" viewBox="0 0 373.92 340.74" style="enable-background:new 0 0 373.92 340.74;" xml:space="preserve">
<style type="text/css">
	.st0{fill:#543175;}
	.st1{fill:#FFFFFF;}
	.st2{fill:#A046C2;}
</style>
<rect x="339.04" y="169.52" class="st0" width="34.89" height="34.98"/>
<rect x="305.84" y="204.5" class="st0" width="33.19" height="33.18"/>
<rect x="305.84" y="169.52" class="st1" width="33.19" height="34.98"/>
<rect x="305.84" y="136.33" class="st0" width="33.19" height="33.18"/>
<rect x="270.87" y="204.5" class="st0" width="34.97" height="33.18"/>
<rect x="270.87" y="169.52" class="st1" width="34.97" height="34.98"/>
<rect x="270.87" y="136.33" class="st1" width="34.97" height="33.18"/>
<rect x="270.87" y="101.44" class="st0" width="34.97" height="34.9"/>
<rect x="237.68" y="272.58" class="st0" width="33.19" height="33.28"/>
<rect x="237.68" y="237.68" class="st0" width="33.19" height="34.9"/>
<rect x="237.68" y="204.5" class="st0" width="33.19" height="33.18"/>
<rect x="237.68" y="169.52" class="st1" width="33.19" height="34.98"/>
<rect x="237.68" y="136.33" class="st2" width="33.19" height="33.18"/>
<rect x="237.68" y="101.44" class="st1" width="33.19" height="34.9"/>
<rect x="237.68" y="68.16" class="st0" width="33.19" height="33.28"/>
<rect x="202.79" y="305.85" class="st0" width="34.89" height="34.89"/>
<rect x="202.79" y="272.58" class="st1" width="34.89" height="33.28"/>
<rect x="202.79" y="237.68" class="st1" width="34.89" height="34.9"/>
<rect x="202.79" y="204.5" class="st1" width="34.89" height="33.18"/>
<rect x="202.79" y="169.52" class="st1" width="34.89" height="34.98"/>
<rect x="202.79" y="136.33" class="st2" width="34.89" height="33.18"/>
<rect x="202.79" y="101.44" class="st2" width="34.89" height="34.9"/>
<rect x="202.79" y="68.16" class="st1" width="34.89" height="33.28"/>
<rect x="202.79" y="33.28" class="st0" width="34.89" height="34.89"/>
<rect x="169.52" y="305.85" class="st0" width="33.28" height="34.89"/>
<rect x="169.52" y="272.58" class="st1" width="33.28" height="33.28"/>
<rect x="169.52" y="237.68" class="st2" width="33.28" height="34.9"/>
<rect x="169.52" y="204.5" class="st2" width="33.28" height="33.18"/>
<rect x="169.52" y="169.52" class="st2" width="33.28" height="34.98"/>
<rect x="169.52" y="136.33" class="st2" width="33.28" height="33.18"/>
<rect x="169.52" y="101.44" class="st2" width="33.28" height="34.9"/>
<rect x="169.52" y="68.16" class="st2" width="33.28" height="33.28"/>
<rect x="169.52" y="33.28" class="st1" width="33.28" height="34.89"/>
<rect x="169.52" class="st0" width="33.28" height="33.28"/>
<rect x="134.63" y="305.85" class="st0" width="34.89" height="34.89"/>
<rect x="134.63" y="272.58" class="st1" width="34.89" height="33.28"/>
<rect x="134.63" y="237.68" class="st1" width="34.89" height="34.9"/>
<rect x="134.63" y="204.5" class="st1" width="34.89" height="33.18"/>
<rect x="134.63" y="169.52" class="st1" width="34.89" height="34.98"/>
<rect x="134.63" y="136.33" class="st2" width="34.89" height="33.18"/>
<rect x="134.63" y="101.44" class="st2" width="34.89" height="34.9"/>
<rect x="134.63" y="68.16" class="st1" width="34.89" height="33.28"/>
<rect x="134.63" y="33.28" class="st0" width="34.89" height="34.89"/>
<rect x="101.35" y="272.58" class="st0" width="33.28" height="33.28"/>
<rect x="101.35" y="237.68" class="st0" width="33.28" height="34.9"/>
<rect x="101.35" y="204.5" class="st0" width="33.28" height="33.18"/>
<rect x="101.35" y="169.52" class="st1" width="33.28" height="34.98"/>
<rect x="101.35" y="136.33" class="st2" width="33.28" height="33.18"/>
<rect x="101.35" y="101.44" class="st1" width="33.28" height="34.9"/>
<rect x="101.35" y="68.16" class="st0" width="33.28" height="33.28"/>
<rect x="68.16" y="204.5" class="st0" width="33.19" height="33.18"/>
<rect x="68.16" y="169.52" class="st1" width="33.19" height="34.98"/>
<rect x="68.16" y="136.33" class="st1" width="33.19" height="33.18"/>
<rect x="68.16" y="101.44" class="st0" width="33.19" height="34.9"/>
<rect x="33.19" y="204.5" class="st0" width="34.97" height="33.18"/>
<rect x="33.19" y="169.52" class="st1" width="34.97" height="34.98"/>
<rect x="33.19" y="136.33" class="st0" width="34.97" height="33.18"/>
<polyline class="st0" points="0,169.52 33.19,169.52 33.19,204.5 0,204.5 "/>
</svg>
