<?xml version="1.0" encoding="utf-8"?>
<!-- Generator: Adobe Illustrator 24.2.0, SVG Export Plug-In . SVG Version: 6.00 Build 0)  -->
<svg version="1.1" xmlns="http://www.w3.org/2000/svg" xmlns:xlink="http://www.w3.org/1999/xlink" x="0px" y="0px"
	 viewBox="0 0 113.16 175.48" style="enable-background:new 0 0 113.16 175.48;" xml:space="preserve">
<style type="text/css">
	.st0{display:none;}
	.st1{display:inline;}
	.st2{fill-rule:evenodd;clip-rule:evenodd;fill:#F7CE46;}
	.st3{fill-rule:evenodd;clip-rule:evenodd;}
	.st4{fill-rule:evenodd;clip-rule:evenodd;fill:#8EAE4A;}
</style>
<g id="Layer_4" class="st0">
	<g class="st1">
		<path class="st2" d="M32.91,38.97c-1.33,6.67,2.86,11.08,3.76,16.04c0.91,4.96,5.57,5.96,1.57,11.29c-4,5.33-3,7.33-9,8
			c-6,0.67-10,2-13,0s-3.67-3.67-3.67-3.67s-4.33-6.67-5-13.33s-2-13.33,2.67-21.67s5.67-9.67,5.67-9.67s-2.67-1.67,5.67-7.33
			s10.33-9,18.67-11s15.67-4.67,21-4S81.58,8.3,81.58,8.3c4.33,3.33,13.67,6.67,16.33,13.67s11.33,17,9,24s0.33,13.67-6,21
			c-6.33,7.33-12.67,13.67-19,19.67s-9.67,8.67-11.67,15s0,21,0,21l-27,8c0,0-3.05-10.23-3.69-17.95
			c-0.64-7.72,1.03-15.72,4.69-20.72c3.67-5,11-11.33,16.67-16.67c5.67-5.33,7-6.33,7-6.33s1.67,0.33,6-7.67c4.33-8,4.33-8,4.33-8
			s2-6,0-10.33s-2.3-6.32-2.3-6.32s-1.36-3.68-6.36-5.34s-10.67-4.67-15.67-4.67s-7.33,0.67-11.67,3.33
			c-4.33,2.67-4.33,2.67-4.33,2.67L32.91,38.97z"/>
	</g>
	<g class="st1">
		<path class="st2" d="M64.25,142.31c-7.33,3.33-11,4.67-12.67,9.33s-2.67,8.33,0.33,12s3.33,6,9,6.33c5.67,0.33,6.33,2,11-2.33
			s9.33-5.67,9.67-9.67s1.06-5.55-2.14-9.44c-3.2-3.89-5.53-5.89-8.2-6.23C68.58,141.98,64.25,142.31,64.25,142.31z"/>
	</g>
	<g id="Layer_2" class="st1">
		<g>
			<path class="st3" d="M74.22,124.62c-1.81,0.5-3.38,0.99-4.97,1.36c-7.23,1.68-14.21,4.16-21.22,6.53
				c-1.55,0.52-3.21,0.74-4.82,1.11c-1.06,0.25-1.66-0.27-1.98-1.19c-0.53-1.56-1.09-3.12-1.51-4.72c-0.82-3.12-1.78-6.23-2.27-9.41
				c-1.17-7.55-1.27-15.12,1.48-22.4c2.33-6.16,6.22-11.31,11.23-15.56c4.86-4.13,9.84-8.12,14.75-12.2
				c3.57-2.97,6.36-6.61,8.4-10.73c3.02-6.09,2.97-12.37,0.03-18.47c-0.78-1.63-2.24-3.07-3.69-4.21
				c-4.8-3.75-10.37-5.57-16.43-5.88c-5.81-0.3-10.05,2.65-13.68,6.76c-0.73,0.82-1.29,1.79-1.93,2.69
				c-1.99,2.84-2.07,5.76-0.75,8.96c1.56,3.78,3.04,7.62,4.23,11.53c3.02,9.83-2.37,15.72-9.93,18.55
				c-3.17,1.19-6.46,1.95-9.96,1.33c-4.02-0.71-7.06-3.05-9.93-5.63c-3.98-3.57-5.69-8.42-7-13.42c-2.04-7.81-0.66-15.3,2.1-22.68
				c3.84-10.26,10.48-18.23,19.65-24.12C34.12,7.63,42.7,3.57,52.27,1.98c9.24-1.53,18.22-0.65,26.76,3.42
				c4.98,2.38,9.88,4.87,14.03,8.65c5.26,4.79,9.56,10.32,12.51,16.75c3.27,7.12,4.07,14.6,2.64,22.39
				c-2.11,11.47-8.2,20.49-16.64,28.16c-2.92,2.65-5.86,5.28-8.87,7.83c-3.54,3-6.26,6.65-8.62,10.59
				c-3.23,5.37-3.67,11.14-2.07,17.11c0.47,1.75,1.16,3.43,1.68,5.17C73.94,122.84,74.04,123.67,74.22,124.62z M67,121
				c-0.17-0.61-0.36-1.28-0.55-1.94c-1.75-6.18-1.82-12.3,0.74-18.28c1.91-4.47,4.65-8.44,8.12-11.82
				c3.66-3.57,7.54-6.93,11.39-10.31c3.76-3.3,7.04-6.99,9.68-11.25c4.21-6.8,6.54-14.25,6.67-22.42c0.01-0.87-0.02-1.74-0.11-2.61
				c-0.56-5.45-2.14-10.56-5.05-15.27c-3.79-6.13-8.27-11.52-14.78-14.91c-2.17-1.13-4.35-2.22-6.59-3.21
				C69.99,6.11,63.16,5.5,56.14,6.27c-5.63,0.62-10.95,2.33-16.1,4.54c-5.96,2.56-11.59,5.84-16.52,10.03
				c-7.14,6.07-11.23,14.04-13.55,23.07c-1.95,7.56-1.52,14.83,1.69,21.93c1.84,4.07,5.51,6.12,9.16,8.18
				c0.32,0.18,0.77,0.11,1.16,0.18c2.52,0.49,4.8-0.31,7.1-1.21c4.38-1.72,8.01-6.33,6.69-12.11c-0.4-1.76-1.02-3.47-1.63-5.17
				c-1.1-3.04-2.36-6.02-3.38-9.08c-1.28-3.82-0.81-7.36,1.64-10.73c2.41-3.32,5.38-5.9,8.7-8.22c3.24-2.26,6.86-3.22,10.7-3.19
				c9.5,0.08,17.68,3.44,24.36,10.28c1.8,1.85,2.95,4.07,3.75,6.49c2.59,7.81,1.39,15.02-3.21,21.82
				c-3.1,4.58-7.16,8.15-11.36,11.63c-3.88,3.22-7.96,6.23-11.62,9.69c-4.69,4.43-8.34,9.63-9.98,16.04
				c-2.31,9.05-1.07,17.82,1.98,26.46c0.07,0.2,0.31,0.35,0.45,0.5C48.91,127.03,65.57,121.97,67,121z"/>
		</g>
		<g>
			<path class="st3" d="M47.62,156.32c0.11-5.44,3.29-9.78,8.76-12.6c3.73-1.92,7.66-3.28,11.84-3.81c0.93-0.12,1.91-0.2,2.81-0.01
				c6.08,1.26,10.71,4.56,13.55,10.19c0.29,0.57,0.47,1.18,0.55,1.81c0.68,5.37-0.54,10.09-4.42,13.94
				c-5.27,5.23-11.54,7.78-18.99,7.24c-3.93-0.28-7.16-1.88-9.74-4.97C49.04,164.57,47.56,161.2,47.62,156.32z M79.2,153.71
				c0.06-4.66-4.49-9.11-9.08-8.96c-3.69,0.12-7.05,1.03-10.3,2.91c-3.41,1.98-5.33,4.8-6.16,8.49c-1.29,5.74,2.78,11.66,8.5,11.82
				c2.66,0.08,5.55-0.56,8-1.64C75.51,163.96,79.12,160.02,79.2,153.71z"/>
		</g>
	</g>
</g>
<g id="Layer_3">
	<g>
		<path class="st4" d="M28.89,16.21c-9.37,6.66-12.08,9.86-14.79,15.04c-2.71,5.18-3.94,17.25-2.71,20.46
			c1.23,3.2,5.11,9.47,9.09,10.65c3.98,1.18,8.9,2.91,12.11-0.05c3.21-2.96,5.67-4.68,7.64-11.83c1.97-7.15-3.7-14.05,4.44-17.25
			c8.13-3.2,12.08-4.44,16.51-3.94c4.44,0.49,9.59,3.13,12.56,5.88c2.97,2.75,8.39,9.4,8.14,12.85c-0.25,3.45,2.71,7.89-3.2,14.54
			s-6.41,9.12-15.28,11.83c-8.87,2.71-14.05,2.71-22.68,5.42c-8.63,2.71-8.87,1.23-16.27,8.13c-7.39,6.9-7.39,7.64-9.61,13.56
			c-2.22,5.92-3.7,17.75-3.7,17.75s28.34,5.42,27.61,4.93c-0.74-0.49-0.25-12.57,7.89-17.99c8.13-5.42,13.56-7.89,20.95-9.86
			c7.39-1.97,15.28-3.2,21.94-7.15c6.66-3.94,11.83-7.64,14.3-12.82c2.46-5.18,7.39-13.8,6.66-19.72
			c-0.74-5.92-1.97-17.75-3.94-21.44c-1.97-3.7-8.63-13.56-12.82-16.51c-4.19-2.96-18.49-9.37-23.66-10.11
			c-5.18-0.74-17.5-1.23-25.14,0.25C37.27,10.3,28.89,16.21,28.89,16.21z"/>
	</g>
	<g>
		<path class="st4" d="M22.97,138.71c-5.92,0-7.89-0.99-13.8,2.96c-5.92,3.94-8.13,10.6-5.92,15.04c2.22,4.44,9.12,9.86,15.53,7.89
			c6.41-1.97,11.58-0.74,13.56-4.93c1.97-4.19,3.7-5.67,2.22-10.6c-1.48-4.93-1.48-4.93-1.48-4.93L22.97,138.71z"/>
	</g>
	<g>
		<path class="st3" d="M40.8,127.25c-6.69-1.36-12.93-2.67-19.19-3.88c-2.62-0.51-5.31-0.71-7.93-1.21
			c-1.84-0.35-3.63-0.96-5.73-1.53c0.11-1.44,0.06-2.78,0.34-4.04c0.87-4,1.58-8.06,2.86-11.94c2.41-7.34,5.96-14.12,11.87-19.31
			c4.76-4.18,10.38-6.87,16.53-8.3c6.36-1.48,12.77-2.75,19.16-4.12c4.62-0.99,8.84-2.98,12.59-5.76c5.37-4,8.18-9.54,8.33-16.23
			c0.04-1.81-0.58-3.75-1.34-5.44c-2.26-5.01-5.93-8.85-10.45-11.94c-5.45-3.71-11.11-3.41-16.9-1.03c-0.8,0.33-1.55,0.78-2.32,1.17
			c-3.34,1.67-4.93,4.33-5.16,8.11c-0.24,3.85-0.91,7.67-1.44,11.49c-0.14,1.01-0.47,1.99-0.78,2.97
			c-2.74,8.64-10.76,10.23-17.03,9.25c-3.26-0.51-6.54-1.15-9.18-3.44C10.38,58,7.9,52.77,7.8,46.72
			c-0.17-9.53,2.98-17.92,9.74-24.83c3.32-3.4,6.79-6.56,10.89-9.02c6.04-3.63,12.53-5.9,19.5-6.72c6.44-0.76,12.9-0.82,19.35-0.03
			c10.35,1.27,19.7,4.93,27.55,11.92c2.04,1.82,3.8,3.99,5.55,6.11c7.65,9.29,11.42,19.97,11.66,32c0.15,7.59-1.89,14.53-5.99,20.79
			c-5.96,9.11-14.38,15.18-24.67,18.52c-5.39,1.75-10.92,3.07-16.44,4.4c-4.58,1.11-8.78,3.03-12.76,5.46
			c-5.51,3.37-8.57,8.45-9.88,14.66c-0.34,1.62-0.51,3.27-0.81,4.89C41.32,125.65,41.03,126.43,40.8,127.25z M35.99,121.36
			c0.24-1.25,0.37-2.01,0.53-2.77c1.17-5.44,3.49-10.3,7.5-14.22c4.09-4,9.07-6.57,14.47-8.22c4.89-1.49,9.89-2.63,14.86-3.85
			c4.78-1.18,9.31-2.91,13.55-5.44c5.49-3.28,10.09-7.48,13.81-12.72c1.8-2.54,3.26-5.2,4.24-8.14c1.45-4.37,2.25-8.82,1.97-13.47
			c-0.5-8.35-2.36-16.2-7.78-22.87c-0.5-0.61-0.95-1.26-1.4-1.91C92.2,19.96,84.5,15.32,75.45,12.74
			c-8.86-2.53-17.87-2.6-26.97-1.65c-5.29,0.55-10.11,2.31-14.75,4.74c-4.97,2.59-8.95,6.38-12.71,10.46
			c-4.07,4.4-6.77,9.47-7.91,15.34c-0.63,3.25-1.3,6.56,0.26,9.74c1.07,2.18,1.97,4.59,3.56,6.35c3.26,3.62,11.01,3.8,14.36,1.65
			c1.41-0.9,2.73-1.86,3.6-3.33c1.3-2.22,1.84-4.67,2.14-7.19c0.43-3.6,0.79-7.21,1.32-10.79c0.58-3.91,2.61-6.78,6.22-8.63
			c3.43-1.75,7.03-2.73,10.79-3.28c4.46-0.65,8.62,0.22,12.54,2.38c5.3,2.91,9.56,6.98,12.67,12.11c2.25,3.71,4.19,7.7,4.07,12.18
			c-0.2,7.38-2.94,13.68-8.88,18.29c-4.03,3.13-8.59,5.29-13.57,6.44c-5.22,1.2-10.47,2.31-15.72,3.37
			c-9.29,1.88-17.65,5.39-23.47,13.32c-1.44,1.96-2.6,4.12-3.84,6.22c-2.95,4.99-3.73,10.61-4.88,16.45
			C21.51,118.57,28.62,119.69,35.99,121.36z"/>
	</g>
	<g>
		<path class="st3" d="M21.02,168.27c-6.53-0.42-11.74-1.6-16.11-5.58c-1.55-1.41-2.52-2.94-3.18-4.77
			c-1.88-5.2-2.07-10.32,1.1-15.16c3.12-4.77,7.72-6.72,13.27-6.68c4.19,0.03,8.31,0.56,12.25,2.06c0.8,0.3,1.66,0.6,2.31,1.12
			c4.84,3.84,7.43,8.86,7.55,15.07c0.02,0.99-0.26,2.05-0.64,2.98c-1.8,4.42-4.71,7.84-9.39,9.3
			C25.56,167.4,22.84,167.85,21.02,168.27z M5.72,152.45c-0.06,3.06,1,5.21,3.38,7.19c1.78,1.48,3.95,2,6.08,2.44
			c5.08,1.06,9.84,0.45,13.92-3.16c5.52-4.88,5.15-11.96-2.42-16.1c-3.15-1.72-6.45-1.84-9.86-1.7
			C10.75,141.37,5.85,146.35,5.72,152.45z"/>
	</g>
</g>
</svg>
