<?xml version="1.0" encoding="utf-8"?>
<!-- Generator: Adobe Illustrator 24.2.0, SVG Export Plug-In . SVG Version: 6.00 Build 0)  -->
<svg version="1.1" xmlns="http://www.w3.org/2000/svg" xmlns:xlink="http://www.w3.org/1999/xlink" x="0px" y="0px"
	 viewBox="0 0 109.59 175.48" style="enable-background:new 0 0 109.59 175.48;" xml:space="preserve">
<style type="text/css">
	.st0{fill-rule:evenodd;clip-rule:evenodd;fill:#F7CE46;}
	.st1{fill-rule:evenodd;clip-rule:evenodd;}
</style>
<g id="Layer_4">
	<g>
		<path class="st0" d="M30.87,38.97c-1.33,6.67,2.86,11.08,3.76,16.04c0.91,4.96,5.57,5.96,1.57,11.29c-4,5.33-3,7.33-9,8
			c-6,0.67-10,2-13,0s-3.67-3.67-3.67-3.67s-4.33-6.67-5-13.33s-2-13.33,2.67-21.67s5.67-9.67,5.67-9.67s-2.67-1.67,5.67-7.33
			s10.33-9,18.67-11s15.67-4.67,21-4C64.53,4.3,79.53,8.3,79.53,8.3c4.33,3.33,13.67,6.67,16.33,13.67s11.33,17,9,24
			s0.33,13.67-6,21c-6.33,7.33-12.67,13.67-19,19.67s-9.67,8.67-11.67,15s0,21,0,21l-27,8c0,0-3.05-10.23-3.69-17.95
			c-0.64-7.72,1.03-15.72,4.69-20.72c3.67-5,11-11.33,16.67-16.67c5.67-5.33,7-6.33,7-6.33s1.67,0.33,6-7.67c4.33-8,4.33-8,4.33-8
			s2-6,0-10.33s-2.3-6.32-2.3-6.32s-1.36-3.68-6.36-5.34s-10.67-4.67-15.67-4.67s-7.33,0.67-11.67,3.33
			c-4.33,2.67-4.33,2.67-4.33,2.67L30.87,38.97z"/>
	</g>
	<g>
		<path class="st0" d="M62.2,142.31c-7.33,3.33-11,4.67-12.67,9.33s-2.67,8.33,0.33,12s3.33,6,9,6.33c5.67,0.33,6.33,2,11-2.33
			s9.33-5.67,9.67-9.67s1.06-5.55-2.14-9.44c-3.2-3.89-5.53-5.89-8.2-6.23C66.53,141.98,62.2,142.31,62.2,142.31z"/>
	</g>
</g>
<g id="Layer_2">
	<g>
		<path class="st1" d="M72.18,124.62c-1.81,0.5-3.38,0.99-4.97,1.36c-7.23,1.68-14.21,4.16-21.22,6.53
			c-1.55,0.52-3.21,0.74-4.82,1.11c-1.06,0.25-1.66-0.27-1.98-1.19c-0.53-1.56-1.09-3.12-1.51-4.72c-0.82-3.12-1.78-6.23-2.27-9.41
			c-1.17-7.55-1.27-15.12,1.48-22.4c2.33-6.16,6.22-11.31,11.23-15.56c4.86-4.13,9.84-8.12,14.75-12.2
			c3.57-2.97,6.36-6.61,8.4-10.73c3.02-6.09,2.97-12.37,0.03-18.47c-0.78-1.63-2.24-3.07-3.69-4.21c-4.8-3.75-10.37-5.57-16.43-5.88
			c-5.81-0.3-10.05,2.65-13.68,6.76c-0.73,0.82-1.29,1.79-1.93,2.69c-1.99,2.84-2.07,5.76-0.75,8.96c1.56,3.78,3.04,7.62,4.23,11.53
			c3.02,9.83-2.37,15.72-9.93,18.55c-3.17,1.19-6.46,1.95-9.96,1.33c-4.02-0.71-7.06-3.05-9.93-5.63c-3.98-3.57-5.69-8.42-7-13.42
			c-2.04-7.81-0.66-15.3,2.1-22.68c3.84-10.26,10.48-18.23,19.65-24.12c8.09-5.19,16.67-9.26,26.24-10.84
			c9.24-1.53,18.22-0.65,26.76,3.42c4.98,2.38,9.88,4.87,14.03,8.65c5.26,4.79,9.56,10.32,12.51,16.75
			c3.27,7.12,4.07,14.6,2.64,22.39c-2.11,11.47-8.2,20.49-16.64,28.16c-2.92,2.65-5.86,5.28-8.87,7.83c-3.54,3-6.26,6.65-8.62,10.59
			c-3.23,5.37-3.67,11.14-2.07,17.11c0.47,1.75,1.16,3.43,1.68,5.17C71.89,122.84,71.99,123.67,72.18,124.62z M64.96,121
			c-0.17-0.61-0.36-1.28-0.55-1.94c-1.75-6.18-1.82-12.3,0.74-18.28c1.91-4.47,4.65-8.44,8.12-11.82
			c3.66-3.57,7.54-6.93,11.39-10.31c3.76-3.3,7.04-6.99,9.68-11.25c4.21-6.8,6.54-14.25,6.67-22.42c0.01-0.87-0.02-1.74-0.11-2.61
			c-0.56-5.45-2.14-10.56-5.05-15.27c-3.79-6.13-8.27-11.52-14.78-14.91c-2.17-1.13-4.35-2.22-6.59-3.21
			C67.94,6.11,61.11,5.5,54.09,6.27c-5.63,0.62-10.95,2.33-16.1,4.54c-5.96,2.56-11.59,5.84-16.52,10.03
			c-7.14,6.07-11.23,14.04-13.55,23.07C5.97,51.47,6.4,58.74,9.61,65.84c1.84,4.07,5.51,6.12,9.16,8.18
			c0.32,0.18,0.77,0.11,1.16,0.18c2.52,0.49,4.8-0.31,7.1-1.21c4.38-1.72,8.01-6.33,6.69-12.11c-0.4-1.76-1.02-3.47-1.63-5.17
			c-1.1-3.04-2.36-6.02-3.38-9.08c-1.28-3.82-0.81-7.36,1.64-10.73c2.41-3.32,5.38-5.9,8.7-8.22c3.24-2.26,6.86-3.22,10.7-3.19
			c9.5,0.08,17.68,3.44,24.36,10.28c1.8,1.85,2.95,4.07,3.75,6.49c2.59,7.81,1.39,15.02-3.21,21.82c-3.1,4.58-7.16,8.15-11.36,11.63
			c-3.88,3.22-7.96,6.23-11.62,9.69c-4.69,4.43-8.34,9.63-9.98,16.04c-2.31,9.05-1.07,17.82,1.98,26.46c0.07,0.2,0.31,0.35,0.45,0.5
			C46.86,127.03,63.52,121.97,64.96,121z"/>
	</g>
	<g>
		<path class="st1" d="M45.57,156.32c0.11-5.44,3.29-9.78,8.76-12.6c3.73-1.92,7.66-3.28,11.84-3.81c0.93-0.12,1.91-0.2,2.81-0.01
			c6.08,1.26,10.71,4.56,13.55,10.19c0.29,0.57,0.47,1.18,0.55,1.81c0.68,5.37-0.54,10.09-4.42,13.94
			c-5.27,5.23-11.54,7.78-18.99,7.24c-3.93-0.28-7.16-1.88-9.74-4.97C46.99,164.57,45.51,161.2,45.57,156.32z M77.15,153.71
			c0.06-4.66-4.49-9.11-9.08-8.96c-3.69,0.12-7.05,1.03-10.3,2.91c-3.41,1.98-5.33,4.8-6.16,8.49c-1.29,5.74,2.78,11.66,8.5,11.82
			c2.66,0.08,5.55-0.56,8-1.64C73.46,163.96,77.07,160.02,77.15,153.71z"/>
	</g>
</g>
</svg>
