<svg xmlns="http://www.w3.org/2000/svg" width="19" height="17" viewBox="0 0 19 17">
    <g fill="none" fill-rule="evenodd">
        <g fill="#FFF" fill-rule="nonzero" stroke="#FFF" stroke-width=".5">
            <g>
                <g>
                    <path d="M9.654 0C5.605 0 2.312 3.366 2.312 7.5v.025L.858 5.289C.716 5.07.425 5.01.21 5.155c-.215.145-.274.443-.131.662l2.11 3.242c.076.117.197.191.332.209.021.003.038.003.06.003.114 0 .225-.042.312-.124l2.932-2.696c.19-.177.208-.478.034-.676-.173-.195-.468-.213-.662-.036L3.249 7.535V7.5c0-3.61 2.873-6.543 6.405-6.543 3.533 0 6.41 2.933 6.41 6.543 0 3.61-2.874 6.543-6.406 6.543-1.71 0-3.32-.68-4.528-1.916-.184-.188-.48-.188-.663 0-.184.188-.184.489 0 .676C5.855 14.221 7.697 15 9.657 15 13.705 15 17 11.638 17 7.5S13.704 0 9.654 0z" transform="translate(-213 -1308) translate(110 1291) matrix(-1 0 0 1 121 18)"/>
                </g>
            </g>
        </g>
    </g>
</svg>
